<?xml version="1.0" encoding="utf-8"?><!-- Uploaded to: SVG Repo, www.svgrepo.com, Generator: SVG Repo Mixer Tools -->
<svg width="800px" height="800px" viewBox="0 0 24 24" fill="none" xmlns="http://www.w3.org/2000/svg"><path d="M7 20a2 2 0 1 0 0-4 2 2 0 0 0 0 4ZM7 8a2 2 0 1 0 0-4 2 2 0 0 0 0 4Z" fill="#000000" fill-opacity=".16" stroke="#000000" stroke-width="1.5" stroke-miterlimit="10"/><path d="M7 16V8" stroke="#000000" stroke-width="1.5" stroke-miterlimit="10" stroke-linecap="round"/><path d="M17 20a2 2 0 1 0 0-4 2 2 0 0 0 0 4ZM17 8a2 2 0 1 0 0-4 2 2 0 0 0 0 4Z" fill="#000000" fill-opacity=".16" stroke="#000000" stroke-width="1.5" stroke-miterlimit="10"/><path d="M17 16V8" stroke="#000000" stroke-width="1.5" stroke-miterlimit="10" stroke-linecap="round"/></svg>