<?xml version="1.0" encoding="iso-8859-1"?>
<!-- Uploaded to: SVG Repo, www.svgrepo.com, Generator: SVG Repo Mixer Tools -->
<svg height="800px" width="800px" version="1.1" id="Layer_1" xmlns="http://www.w3.org/2000/svg" xmlns:xlink="http://www.w3.org/1999/xlink" 
	 viewBox="0 0 503.641 503.641" xml:space="preserve">
<g transform="translate(0 1)">
	<path style="fill:#FFE100;" d="M419.689,108.149V477.46c0,9.233-6.715,16.787-14.269,16.787h22.662
		c9.233,0,16.787-7.554,16.787-16.787v-358.4c0-5.875-5.036-10.911-10.911-10.911H419.689z"/>
	<path style="fill:#FECC00;" d="M419.689,108.149h-83.934c-9.233,0-16.787-7.554-16.787-16.787V7.427L419.689,108.149z"/>
	<path style="fill:#FFE100;" d="M394.509,108.149h-61.272c-7.554,0-14.269-7.554-14.269-16.787V7.427H106.614
		c-7.554,0-14.269,7.554-14.269,16.787V477.46c0,9.233,6.715,16.787,14.269,16.787H380.24c7.554,0,14.269-7.554,14.269-16.787
		V108.149z"/>
	<path style="fill:#FFA800;" d="M394.509,108.149V477.46c0,9.233-6.715,16.787-14.269,16.787h22.662
		c9.233,0,16.787-7.554,16.787-16.787V108.149H394.509z"/>
	<path style="fill:#FFFFFF;" d="M92.345,477.46V24.214c0-9.233,6.715-16.787,14.269-16.787H83.951
		c-9.233,0-16.787,7.554-16.787,16.787V477.46c0,9.233,7.554,16.787,16.787,16.787h22.662
		C99.06,494.247,92.345,486.693,92.345,477.46"/>
	<path d="M419.689,116.542h-83.934c-14.269,0-25.18-10.911-25.18-25.18V7.427c0-3.357,1.679-6.715,5.036-7.554
		c3.357-1.679,6.715-0.839,9.233,1.679l100.721,100.721c2.518,2.518,3.357,5.875,1.679,9.233
		C426.404,114.864,423.047,116.542,419.689,116.542z M327.361,27.572v63.79c0,5.036,3.357,8.393,8.393,8.393h63.79L327.361,27.572z"
		/>
	<path d="M402.902,502.641H83.951c-14.269,0-25.18-10.911-25.18-25.18V217.264c0-5.036,3.357-8.393,8.393-8.393
		s8.393,3.357,8.393,8.393V477.46c0,5.036,3.357,8.393,8.393,8.393h318.951c5.036,0,8.393-3.357,8.393-8.393V116.542h-75.541
		c-14.269,0-25.18-10.911-25.18-25.18V15.821H83.951c-5.036,0-8.393,4.197-8.393,8.393v125.902c0,5.036-3.357,8.393-8.393,8.393
		s-8.393-3.357-8.393-8.393V24.214c0-14.269,10.911-25.18,25.18-25.18h235.016c5.036,0,8.393,3.357,8.393,8.393v83.934
		c0,5.036,3.357,8.393,8.393,8.393h83.934c5.036,0,8.393,3.357,8.393,8.393V477.46C428.083,491.729,417.171,502.641,402.902,502.641
		z"/>
	<path d="M75.558,183.69c0-5.036-3.357-8.393-8.393-8.393s-8.393,3.357-8.393,8.393c0,5.036,3.357,8.393,8.393,8.393
		S75.558,188.726,75.558,183.69"/>
	<path d="M268.607,116.542H117.525c-5.036,0-8.393-3.357-8.393-8.393c0-5.036,3.357-8.393,8.393-8.393h151.082
		c5.036,0,8.393,3.357,8.393,8.393C277.001,113.185,273.643,116.542,268.607,116.542z"/>
	<path d="M369.328,166.903H117.525c-5.036,0-8.393-3.357-8.393-8.393c0-5.036,3.357-8.393,8.393-8.393h251.803
		c5.036,0,8.393,3.357,8.393,8.393C377.722,163.545,374.365,166.903,369.328,166.903z"/>
	<path d="M369.328,217.264H117.525c-5.036,0-8.393-3.357-8.393-8.393c0-5.036,3.357-8.393,8.393-8.393h251.803
		c5.036,0,8.393,3.357,8.393,8.393C377.722,213.906,374.365,217.264,369.328,217.264z"/>
	<path d="M369.328,267.624H117.525c-5.036,0-8.393-3.357-8.393-8.393s3.357-8.393,8.393-8.393h251.803
		c5.036,0,8.393,3.357,8.393,8.393S374.365,267.624,369.328,267.624z"/>
	<path d="M369.328,317.985H117.525c-5.036,0-8.393-3.357-8.393-8.393s3.357-8.393,8.393-8.393h251.803
		c5.036,0,8.393,3.357,8.393,8.393S374.365,317.985,369.328,317.985z"/>
	<path d="M369.328,368.345H117.525c-5.036,0-8.393-3.357-8.393-8.393c0-5.036,3.357-8.393,8.393-8.393h251.803
		c5.036,0,8.393,3.357,8.393,8.393C377.722,364.988,374.365,368.345,369.328,368.345z"/>
	<path d="M369.328,418.706H117.525c-5.036,0-8.393-3.357-8.393-8.393c0-5.036,3.357-8.393,8.393-8.393h251.803
		c5.036,0,8.393,3.357,8.393,8.393C377.722,415.349,374.365,418.706,369.328,418.706z"/>
</g>
</svg>