<?xml version="1.0" encoding="iso-8859-1"?>
<!-- Uploaded to: SVG Repo, www.svgrepo.com, Generator: SVG Repo Mixer Tools -->
<svg fill="#000000" height="800px" width="800px" version="1.1" id="Layer_1" xmlns="http://www.w3.org/2000/svg" xmlns:xlink="http://www.w3.org/1999/xlink" 
	 viewBox="0 0 330 330" xml:space="preserve">
<path id="XMLID_2_" d="M275,119.996c3.978,0,7.793-1.58,10.606-4.394l40-40c2.814-2.813,4.394-6.63,4.394-10.609
	c-0.001-3.979-1.583-7.795-4.398-10.608l-40-39.971c-2.812-2.811-6.625-4.389-10.6-4.39l-230-0.029c-0.001,0-0.001,0-0.002,0
	c-3.978,0-7.793,1.58-10.606,4.393C31.581,17.202,30,21.018,30,24.996v80c0,8.284,6.716,15,15,15h105v29.975H55
	c-3.978,0-7.794,1.58-10.606,4.394l-40,40C1.58,197.178,0,200.994,0,204.974c0.001,3.979,1.582,7.795,4.397,10.607l40,39.973
	c2.812,2.811,6.625,4.389,10.601,4.39L150,259.955v45.049c0,8.284,6.716,15,15,15c8.284,0,15-6.716,15-15v-45.046l104.998,0.013
	c0.001,0,0.001,0,0.001,0c3.979,0,7.794-1.58,10.607-4.393c2.813-2.813,4.394-6.629,4.394-10.607v-80c0-8.284-6.716-15-15-15H180
	v-29.975H275z M270,229.969l-208.789-0.024l-24.994-24.978l24.997-24.996H270V229.969z M60,39.998l208.789,0.026L293.783,65
	l-24.996,24.996H60V39.998z"/>
</svg>